<?xml version="1.0" encoding="UTF-8"?><!DOCTYPE svg PUBLIC "-//W3C//DTD SVG 1.1//EN" "http://www.w3.org/Graphics/SVG/1.1/DTD/svg11.dtd"><svg xmlns="http://www.w3.org/2000/svg"><defs><clipPath id="a"><path d="M0 0h20v20H0z"/></clipPath><clipPath id="a"><path transform="translate(.111)" d="M0 0h27.778v27.778H0z"/></clipPath><clipPath id="a"><path d="M0 0h53v53H0z"/></clipPath><clipPath id="a"><path d="M0 0h20v20H0z"/></clipPath><clipPath id="a"><path d="M0 0h20v20H0z"/></clipPath><clipPath id="a"><path d="M0 0h20v20H0z"/></clipPath><clipPath id="a"><path d="M0 0h20v20H0z"/></clipPath><clipPath id="a"><path d="M0 0h20v20H0z"/></clipPath><clipPath id="a"><path d="M0 0h53v53H0z"/></clipPath><clipPath id="a"><path d="M0 0h20v20H0z"/></clipPath><clipPath id="a"><path d="M0 0h20v20H0z"/></clipPath><clipPath id="a"><path d="M0 0h20v20H0z"/></clipPath><clipPath id="a"><path d="M0 0h20v20H0z"/></clipPath><clipPath id="a"><path d="M0 0h22v22H0z"/></clipPath><clipPath id="a"><path d="M0 0h20v20H0z"/></clipPath><clipPath id="a"><path d="M0 0h20v20H0z"/></clipPath><clipPath id="a"><path transform="translate(.2)" d="M0 0h20v20H0z"/></clipPath></defs><symbol id="accessibility" viewBox="0 0 20 20"><g clip-path="url(#a)" stroke="#000" stroke-width="2" stroke-linecap="round" stroke-linejoin="round"><path d="M7.5 4.167a1.667 1.667 0 1 0 3.333 0 1.667 1.667 0 0 0-3.333 0z"/><path d="M9.167 5.833V12.5H12.5l3.334 4.167M9.167 9.167h4.167M5.833 9.583a4.167 4.167 0 1 0 5 6.25"/></g></symbol><symbol id="arrow-between" viewBox="0 0 88 54"><path d="M.619 20.203c15.099-7.688 51.836-16.983 77.997 7.342M67.534 30.699l19.344 5.476-4.27-19.928" stroke="#000" stroke-linecap="round"/></symbol><symbol id="arrow-slide" viewBox="0 0 28 28"><g clip-path="url(#a)" stroke="#CA161A" stroke-width="2" stroke-linecap="round" stroke-linejoin="round"><path d="M5.898 13.889h16.204M5.898 13.889l6.945 6.944M5.898 13.889l6.945-6.944"/></g></symbol><symbol id="arrow" viewBox="0 0 11 6"><path d="M5.6 5l-4-4M5.6 5l4-4"/></symbol><symbol id="building-store" viewBox="0 0 53 53"><g clip-path="url(#a)"><path d="M8.19 46.375h39.75M8.19 15.458v2.209a6.625 6.625 0 0 0 13.25 0M8.19 15.458h39.75m-39.75 0l4.416-8.833h30.917l4.416 8.833m-26.5 2.209v-2.209m0 2.209a6.625 6.625 0 1 0 13.25 0m0 0v-2.209m0 2.209a6.625 6.625 0 1 0 13.25 0v-2.209M12.604 46.375V23.96M43.522 46.375V23.96"/></g></symbol><symbol id="calendar-event" viewBox="0 0 20 20"><g clip-path="url(#a)"><path d="M3.333 5.833A1.667 1.667 0 0 1 5 4.167h10a1.667 1.667 0 0 1 1.667 1.666v10A1.666 1.666 0 0 1 15 17.5H5a1.667 1.667 0 0 1-1.667-1.667v-10zM13.333 2.5v3.333M6.667 2.5v3.333M3.333 9.167h13.334"/><path d="M6.667 12.5h1.666v1.667H6.667V12.5z"/></g></symbol><symbol id="checked" viewBox="0 0 8 6"><path d="M1.667 2.967l1.4 1.4L6.332 1.1"/></symbol><symbol id="clock" viewBox="0 0 20 20"><g clip-path="url(#a)"><path d="M2.5 10a7.5 7.5 0 1 0 15 0 7.5 7.5 0 0 0-15 0z"/><path d="M10 5.833V10l2.5 2.5"/></g></symbol><symbol id="close" viewBox="0 0 24 24"><path fill-rule="evenodd" clip-rule="evenodd" d="M5.293 5.293a1 1 0 0 1 1.414 0L12 10.586l5.293-5.293a1 1 0 1 1 1.414 1.414L13.414 12l5.293 5.293a1 1 0 0 1-1.414 1.414L12 13.414l-5.293 5.293a1 1 0 0 1-1.414-1.414L10.586 12 5.293 6.707a1 1 0 0 1 0-1.414z"/></symbol><symbol id="dollar" viewBox="0 0 20 20"><g clip-path="url(#a)" stroke="#000" stroke-width="2" stroke-linecap="round" stroke-linejoin="round"><path d="M13.916 6.667A2.5 2.5 0 0 0 11.666 5H8.333a2.5 2.5 0 1 0 0 5h3.333a2.5 2.5 0 1 1 0 5H8.333a2.5 2.5 0 0 1-2.25-1.667M10 2.5V5m0 10v2.5"/></g></symbol><symbol id="facebook" viewBox="0 0 23 23"><path d="M12.559 19.685V12h2.592l.386-3.008h-2.978V7.076c0-.868.242-1.462 1.488-1.462h1.579V2.932a20.938 20.938 0 0 0-2.313-.12c-2.292 0-3.865 1.4-3.865 3.967v2.208H6.873v3.008h2.581v7.69h3.105z"/></symbol><symbol id="file-dots" viewBox="0 0 20 20"><g clip-path="url(#a)"><path d="M11.667 2.5v3.333a.833.833 0 0 0 .833.834h3.334"/><path d="M14.167 17.5H5.834a1.667 1.667 0 0 1-1.667-1.667V4.167A1.667 1.667 0 0 1 5.834 2.5h5.833l4.167 4.167v9.166a1.666 1.666 0 0 1-1.667 1.667zM7.5 11.667v.008M10 11.667v.008M12.5 11.667v.008"/></g></symbol><symbol id="flag-pin" viewBox="0 0 20 20"><g clip-path="url(#a)"><path d="M10.714 12.23a4.185 4.185 0 0 1-.714-.563 4.167 4.167 0 0 0-5.833 0v-7.5a4.167 4.167 0 0 1 5.833 0 4.167 4.167 0 0 0 5.833 0v5M4.167 17.5v-5.833M17.6 16.767a2.5 2.5 0 1 0-3.534 0c.348.35.937.871 1.767 1.566.876-.741 1.466-1.263 1.768-1.566zM15.833 15v.01"/></g></symbol><symbol id="instagram" viewBox="0 0 23 23"><path d="M11.247 6.914a4.335 4.335 0 1 0 0 8.67 4.335 4.335 0 0 0 0-8.67zm0 7.15a2.816 2.816 0 1 1 0-5.632 2.816 2.816 0 0 1 0 5.632zM15.755 7.767a1.01 1.01 0 1 0 0-2.02 1.01 1.01 0 0 0 0 2.02z"/><path d="M19.248 5.728a4.318 4.318 0 0 0-2.469-2.467 6.193 6.193 0 0 0-2.049-.394c-.903-.04-1.189-.05-3.478-.05-2.29 0-2.583 0-3.478.05-.7.014-1.393.147-2.048.394a4.312 4.312 0 0 0-2.468 2.467 6.174 6.174 0 0 0-.393 2.05c-.04.902-.053 1.187-.053 3.478 0 2.29 0 2.58.053 3.478.014.701.146 1.393.393 2.05a4.322 4.322 0 0 0 2.47 2.468 6.174 6.174 0 0 0 2.048.422c.902.039 1.188.051 3.478.051s2.583 0 3.478-.051a6.205 6.205 0 0 0 2.05-.393 4.325 4.325 0 0 0 2.468-2.469 6.175 6.175 0 0 0 .392-2.049c.04-.902.053-1.188.053-3.478s0-2.581-.053-3.478a6.168 6.168 0 0 0-.394-2.079zm-1.142 8.937a4.726 4.726 0 0 1-.292 1.582 2.799 2.799 0 0 1-1.605 1.604 4.675 4.675 0 0 1-1.565.292c-.89.04-1.142.051-3.426.051-2.286 0-2.519 0-3.426-.051a4.651 4.651 0 0 1-1.565-.292 2.799 2.799 0 0 1-1.612-1.604 4.762 4.762 0 0 1-.291-1.565c-.04-.89-.05-1.142-.05-3.425 0-2.285 0-2.518.05-3.427.006-.54.104-1.075.291-1.581a2.8 2.8 0 0 1 1.612-1.605 4.697 4.697 0 0 1 1.565-.292c.891-.04 1.141-.052 3.426-.052s2.52 0 3.426.052a4.65 4.65 0 0 1 1.565.292 2.804 2.804 0 0 1 1.605 1.605c.185.501.283 1.03.292 1.564.04.892.05 1.142.05 3.427 0 2.284 0 2.53-.04 3.425h-.01z"/></symbol><symbol id="linkedin" viewBox="0 0 23 23"><path d="M4.67 6.747a2.051 2.051 0 1 0 0-4.102 2.051 2.051 0 0 0 0 4.102zM8.659 8.3v11.381h3.533v-5.628c0-1.485.28-2.923 2.12-2.923 1.816 0 1.839 1.698 1.839 3.017v5.535h3.535v-6.24c0-3.066-.66-5.422-4.243-5.422-1.72 0-2.873.944-3.345 1.837h-.048V8.301H8.66zM2.9 8.3h3.54v11.381H2.9V8.301z"/></symbol><symbol id="mail" viewBox="0 0 25 24"><path clip-rule="evenodd" d="M5.136 5.045h14.727c.904 0 1.637.733 1.637 1.637v10.636c0 .904-.733 1.636-1.636 1.636H5.136A1.635 1.635 0 0 1 3.5 17.318V6.682c0-.904.733-1.637 1.636-1.637z"/><path d="M3.62 6.075l7.693 5.503a2 2 0 0 0 2.325.002l7.738-5.519"/></symbol><symbol id="microphone" viewBox="0 0 53 53"><g clip-path="url(#a)"><path d="M33.125 28.488a11.042 11.042 0 1 0-8.617-8.613M33.124 28.488l-8.616-8.61L7.916 38.833a4.417 4.417 0 0 0 6.243 6.25l18.965-16.597z"/></g></symbol><symbol id="paperclip" viewBox="0 0 20 20"><g clip-path="url(#a)"><path d="M12.5 5.833L7.082 11.25a1.768 1.768 0 1 0 2.5 2.5l5.416-5.417a3.536 3.536 0 0 0-5-5L4.583 8.75a5.303 5.303 0 0 0 7.5 7.5l5.416-5.417"/></g></symbol><symbol id="pet" viewBox="0 0 20 20"><g clip-path="url(#a)" stroke="#000" stroke-width="2" stroke-linecap="round" stroke-linejoin="round"><path d="M9.167 4.167h1.667M15.834 10c-.556 4.444-1.944 6.667-4.167 6.667H8.334c-2.223 0-3.611-2.223-4.167-6.667"/><path d="M9.167 13.333c0 .556.277.834.833.834.556 0 .834-.278.834-.834H9.167zM10 15v1.667M8.333 9.167v.008M11.667 9.167v.008M4.166 3.333l5 .809-5.198 5.573a.85.85 0 0 1-1.175.092.794.794 0 0 1-.273-.795l1.646-5.679zM15.833 3.333l-5 .809 5.198 5.573a.852.852 0 0 0 1.175.092.794.794 0 0 0 .273-.795l-1.646-5.679z"/></g></symbol><symbol id="phone" viewBox="0 0 20 20"><g clip-path="url(#a)"><path d="M4.167 3.333H7.5L9.167 7.5 7.083 8.75a9.167 9.167 0 0 0 4.167 4.167l1.25-2.084 4.167 1.667v3.333A1.667 1.667 0 0 1 15 17.5 13.333 13.333 0 0 1 2.5 5a1.667 1.667 0 0 1 1.667-1.667z"/></g></symbol><symbol id="pointer" viewBox="0 0 20 20"><g clip-path="url(#a)"><path d="M6.586 14.636a1 1 0 0 0 1.857.256l1.742-2.577 4.089 4.09a.887.887 0 0 0 1.257 0l.873-.873a.89.89 0 0 0 0-1.258l-4.09-4.09 2.595-1.74a1 1 0 0 0-.258-1.857L3.333 3.333l3.253 11.303z"/></g></symbol><symbol id="search" viewBox="0 0 22 22"><g clip-path="url(#a)"><path d="M2.75 9.167a6.417 6.417 0 1 0 12.833 0 6.417 6.417 0 0 0-12.833 0zM19.25 19.25l-5.5-5.5"/></g></symbol><symbol id="square-rounded-check" viewBox="0 0 20 20"><g clip-path="url(#a)"><path d="M7.5 10l1.667 1.667L12.5 8.333"/><path d="M10 2.5c6 0 7.5 1.5 7.5 7.5S16 17.5 10 17.5 2.5 16 2.5 10 4 2.5 10 2.5z"/></g></symbol><symbol id="thumb-up" viewBox="0 0 20 20"><g clip-path="url(#a)"><path d="M5.833 9.167v6.666a.833.833 0 0 1-.833.834H3.333a.833.833 0 0 1-.833-.834V10a.833.833 0 0 1 .833-.833h2.5zm0 0a3.333 3.333 0 0 0 3.334-3.334V5A1.667 1.667 0 1 1 12.5 5v4.167H15a1.667 1.667 0 0 1 1.667 1.666L15.833 15c-.12.511-.347.95-.648 1.25-.3.301-.658.447-1.018.417H8.333a2.5 2.5 0 0 1-2.5-2.5"/></g></symbol><symbol id="ticket" viewBox="0 0 21 20"><g clip-path="url(#a)"><path d="M12.7 4.167v1.666M12.7 9.167v1.666M12.7 14.167v1.666M4.367 4.167h11.666A1.667 1.667 0 0 1 17.7 5.833v2.5a1.667 1.667 0 1 0 0 3.334v2.5a1.667 1.667 0 0 1-1.667 1.666H4.367A1.667 1.667 0 0 1 2.7 14.167v-2.5a1.666 1.666 0 1 0 0-3.334v-2.5a1.667 1.667 0 0 1 1.667-1.666z"/></g></symbol><symbol id="whatsup" viewBox="0 0 24 24"><path clip-rule="evenodd" d="M18.204 5.762a8.665 8.665 0 0 0-6.167-2.556c-4.807 0-8.718 3.909-8.719 8.714a8.7 8.7 0 0 0 1.163 4.357l-1.237 4.516 4.622-1.212a8.717 8.717 0 0 0 4.167 1.061h.004c4.805 0 8.716-3.91 8.718-8.715a8.662 8.662 0 0 0-2.55-6.165z"/><path d="M13.095 13.56l.406-.403c.373-.37.963-.417 1.393-.115.416.292.792.554 1.142.798.556.386.623 1.178.144 1.656l-.36.359M8.146 8.179l.359-.36a1.083 1.083 0 0 1 1.655.145c.243.35.505.726.799 1.142a1.09 1.09 0 0 1-.115 1.393l-.403.406M15.82 15.855c-1.48 1.474-3.97.222-5.934-1.744M9.888 14.114C7.923 12.148 6.671 9.66 8.145 8.179M10.44 10.905a8.686 8.686 0 0 0 1.19 1.463l.002.002c.462.462.96.87 1.463 1.19"/></symbol></svg>