<?xml version="1.0" encoding="UTF-8"?><!DOCTYPE svg PUBLIC "-//W3C//DTD SVG 1.1//EN" "http://www.w3.org/Graphics/SVG/1.1/DTD/svg11.dtd"><svg xmlns="http://www.w3.org/2000/svg"><defs><clipPath id="a"><path transform="translate(.111)" d="M0 0h27.778v27.778H0z"/></clipPath><clipPath id="a"><path d="M0 0h20v20H0z"/></clipPath><clipPath id="a"><path d="M0 0h20v20H0z"/></clipPath><clipPath id="a"><path d="M0 0h22v22H0z"/></clipPath><clipPath id="a"><path transform="translate(.2)" d="M0 0h20v20H0z"/></clipPath></defs><symbol id="arrow-slide" viewBox="0 0 28 28"><g clip-path="url(#a)" stroke="#CA161A" stroke-width="2" stroke-linecap="round" stroke-linejoin="round"><path d="M5.898 13.889h16.204M5.898 13.889l6.945 6.944M5.898 13.889l6.945-6.944"/></g></symbol><symbol id="arrow" viewBox="0 0 11 6"><path d="M5.6 5l-4-4M5.6 5l4-4"/></symbol><symbol id="calendar-event" viewBox="0 0 20 20"><g clip-path="url(#a)"><path d="M3.333 5.833A1.667 1.667 0 0 1 5 4.167h10a1.667 1.667 0 0 1 1.667 1.666v10A1.666 1.666 0 0 1 15 17.5H5a1.667 1.667 0 0 1-1.667-1.667v-10zM13.333 2.5v3.333M6.667 2.5v3.333M3.333 9.167h13.334"/><path d="M6.667 12.5h1.666v1.667H6.667V12.5z"/></g></symbol><symbol id="close" viewBox="0 0 24 24"><path fill-rule="evenodd" clip-rule="evenodd" d="M5.293 5.293a1 1 0 0 1 1.414 0L12 10.586l5.293-5.293a1 1 0 1 1 1.414 1.414L13.414 12l5.293 5.293a1 1 0 0 1-1.414 1.414L12 13.414l-5.293 5.293a1 1 0 0 1-1.414-1.414L10.586 12 5.293 6.707a1 1 0 0 1 0-1.414z"/></symbol><symbol id="flag-pin" viewBox="0 0 20 20"><g clip-path="url(#a)"><path d="M10.714 12.23a4.185 4.185 0 0 1-.714-.563 4.167 4.167 0 0 0-5.833 0v-7.5a4.167 4.167 0 0 1 5.833 0 4.167 4.167 0 0 0 5.833 0v5M4.167 17.5v-5.833M17.6 16.767a2.5 2.5 0 1 0-3.534 0c.348.35.937.871 1.767 1.566.876-.741 1.466-1.263 1.768-1.566zM15.833 15v.01"/></g></symbol><symbol id="search" viewBox="0 0 22 22"><g clip-path="url(#a)"><path d="M2.75 9.167a6.417 6.417 0 1 0 12.833 0 6.417 6.417 0 0 0-12.833 0zM19.25 19.25l-5.5-5.5"/></g></symbol><symbol id="ticket" viewBox="0 0 21 20"><g clip-path="url(#a)" stroke="#CA161A" stroke-width="1.5" stroke-linecap="round" stroke-linejoin="round"><path d="M12.7 4.167v1.666M12.7 9.167v1.666M12.7 14.167v1.666M4.367 4.167h11.666A1.667 1.667 0 0 1 17.7 5.833v2.5a1.667 1.667 0 1 0 0 3.334v2.5a1.667 1.667 0 0 1-1.667 1.666H4.367A1.667 1.667 0 0 1 2.7 14.167v-2.5a1.666 1.666 0 1 0 0-3.334v-2.5a1.667 1.667 0 0 1 1.667-1.666z"/></g></symbol></svg>