<svg width="20" height="20" viewBox="0 0 20 20" fill="none" xmlns="http://www.w3.org/2000/svg">
<g clip-path="url(#clip0_119_2756)">
<path d="M7.5 4.16667C7.5 4.60869 7.6756 5.03262 7.98816 5.34518C8.30072 5.65774 8.72464 5.83333 9.16667 5.83333C9.60869 5.83333 10.0326 5.65774 10.3452 5.34518C10.6577 5.03262 10.8333 4.60869 10.8333 4.16667C10.8333 3.72464 10.6577 3.30072 10.3452 2.98816C10.0326 2.67559 9.60869 2.5 9.16667 2.5C8.72464 2.5 8.30072 2.67559 7.98816 2.98816C7.6756 3.30072 7.5 3.72464 7.5 4.16667Z" stroke="black" stroke-width="2" stroke-linecap="round" stroke-linejoin="round"/>
<path d="M9.16699 5.83325V12.4999H12.5003L15.8337 16.6666" stroke="black" stroke-width="2" stroke-linecap="round" stroke-linejoin="round"/>
<path d="M9.16699 9.16675H13.3337" stroke="black" stroke-width="2" stroke-linecap="round" stroke-linejoin="round"/>
<path d="M5.83318 9.58325C5.23609 9.83052 4.70471 10.2133 4.28103 10.7013C3.85736 11.1893 3.55301 11.7692 3.39205 12.3951C3.23109 13.021 3.21792 13.6758 3.3536 14.3076C3.48928 14.9395 3.77007 15.5311 4.17379 16.0358C4.57751 16.5404 5.09308 16.9442 5.67975 17.2153C6.26641 17.4864 6.90809 17.6173 7.55406 17.5976C8.20002 17.578 8.83257 17.4083 9.40168 17.1021C9.97079 16.7959 10.4609 16.3615 10.8332 15.8333" stroke="black" stroke-width="2" stroke-linecap="round" stroke-linejoin="round"/>
</g>
<defs>
<clipPath id="clip0_119_2756">
<rect width="20" height="20" fill="white"/>
</clipPath>
</defs>
</svg>
