<svg width="53" height="53" viewBox="0 0 53 53" fill="none" xmlns="http://www.w3.org/2000/svg">
<g clip-path="url(#clip0_181_12447)">
<path d="M8.18945 46.375H47.9395"/>
<path d="M8.18945 15.4583V17.6667C8.18945 19.4237 8.88744 21.1088 10.1299 22.3512C11.3723 23.5937 13.0574 24.2917 14.8145 24.2917C16.5715 24.2917 18.2566 23.5937 19.499 22.3512C20.7415 21.1088 21.4395 19.4237 21.4395 17.6667M8.18945 15.4583H47.9395M8.18945 15.4583L12.6061 6.625H43.5228L47.9395 15.4583M21.4395 17.6667V15.4583M21.4395 17.6667C21.4395 19.4237 22.1374 21.1088 23.3799 22.3512C24.6223 23.5937 26.3074 24.2917 28.0645 24.2917C29.8215 24.2917 31.5066 23.5937 32.749 22.3512C33.9915 21.1088 34.6895 19.4237 34.6895 17.6667M34.6895 17.6667V15.4583M34.6895 17.6667C34.6895 19.4237 35.3874 21.1088 36.6299 22.3512C37.8723 23.5937 39.5574 24.2917 41.3145 24.2917C43.0715 24.2917 44.7566 23.5937 45.999 22.3512C47.2415 21.1088 47.9395 19.4237 47.9395 17.6667V15.4583"/>
<path d="M12.6035 46.375V23.9604"/>
<path d="M43.5215 46.375V23.9604"/>
</g>
<defs>
<clipPath id="clip0_181_12447">
<rect width="53" height="53" fill="white"/>
</clipPath>
</defs>
</svg>
