<svg width="20" height="20" viewBox="0 0 20 20" fill="none" xmlns="http://www.w3.org/2000/svg">
<g clip-path="url(#clip0_119_2725)">
<path d="M13.9163 6.66667C13.7505 6.19603 13.4475 5.7858 13.0466 5.48878C12.6456 5.19176 12.1649 5.02153 11.6663 5H8.33301C7.66997 5 7.03408 5.26339 6.56524 5.73223C6.0964 6.20107 5.83301 6.83696 5.83301 7.5C5.83301 8.16304 6.0964 8.79893 6.56524 9.26777C7.03408 9.73661 7.66997 10 8.33301 10H11.6663C12.3294 10 12.9653 10.2634 13.4341 10.7322C13.9029 11.2011 14.1663 11.837 14.1663 12.5C14.1663 13.163 13.9029 13.7989 13.4341 14.2678C12.9653 14.7366 12.3294 15 11.6663 15H8.33301C7.83446 14.9785 7.35377 14.8082 6.95278 14.5112C6.5518 14.2142 6.24888 13.804 6.08301 13.3333" stroke="black" stroke-width="2" stroke-linecap="round" stroke-linejoin="round"/>
<path d="M10 2.5V5M10 15V17.5" stroke="black" stroke-width="2" stroke-linecap="round" stroke-linejoin="round"/>
</g>
<defs>
<clipPath id="clip0_119_2725">
<rect width="20" height="20" fill="white"/>
</clipPath>
</defs>
</svg>
