<svg width="20" height="20" viewBox="0 0 20 20" fill="none" xmlns="http://www.w3.org/2000/svg">
<g clip-path="url(#clip0_234_3987)">
<path d="M10.7142 12.2292C10.4565 12.0682 10.217 11.8796 10.0001 11.6667C9.22121 10.9032 8.17405 10.4756 7.08341 10.4756C5.99278 10.4756 4.94562 10.9032 4.16675 11.6667V4.16666C4.94562 3.40321 5.99278 2.97559 7.08341 2.97559C8.17405 2.97559 9.22121 3.40321 10.0001 4.16666C10.779 4.9301 11.8261 5.35773 12.9167 5.35773C14.0074 5.35773 15.0545 4.9301 15.8334 4.16666V9.16666"  stroke-width="1.5" stroke-linecap="round" stroke-linejoin="round"/>
<path d="M4.16675 17.5001V11.6667"  stroke-width="1.5" stroke-linecap="round" stroke-linejoin="round"/>
<path d="M17.6008 16.7675C17.9505 16.4179 18.1886 15.9725 18.2852 15.4875C18.3817 15.0025 18.3322 14.4998 18.143 14.043C17.9538 13.5861 17.6334 13.1956 17.2223 12.9209C16.8111 12.6462 16.3277 12.4995 15.8333 12.4995C15.3388 12.4995 14.8554 12.6462 14.4442 12.9209C14.0331 13.1956 13.7127 13.5861 13.5235 14.043C13.3343 14.4998 13.2848 15.0025 13.3813 15.4875C13.4779 15.9725 13.716 16.4179 14.0658 16.7675C14.4141 17.1167 15.0033 17.6384 15.8333 18.3334C16.7091 17.5917 17.2991 17.07 17.6008 16.7675Z"  stroke-width="1.5" stroke-linecap="round" stroke-linejoin="round"/>
<path d="M15.8333 15V15.01"  stroke-width="1.5" stroke-linecap="round" stroke-linejoin="round"/>
</g>
<defs>
<clipPath id="clip0_234_3987">
<rect width="20" height="20" fill="white"/>
</clipPath>
</defs>
</svg>
