<svg width="23" height="23" viewBox="0 0 23 23" fill="none" xmlns="http://www.w3.org/2000/svg">
<path d="M11.2471 6.91406C10.0974 6.91406 8.99477 7.37078 8.1818 8.18375C7.36883 8.99672 6.91211 10.0993 6.91211 11.2491C6.91211 12.3988 7.36883 13.5014 8.1818 14.3144C8.99477 15.1273 10.0974 15.5841 11.2471 15.5841C12.3968 15.5841 13.4994 15.1273 14.3124 14.3144C15.1254 13.5014 15.5821 12.3988 15.5821 11.2491C15.5821 10.0993 15.1254 8.99672 14.3124 8.18375C13.4994 7.37078 12.3968 6.91406 11.2471 6.91406ZM11.2471 14.0644C10.5002 14.0644 9.78387 13.7677 9.25572 13.2395C8.72757 12.7114 8.43086 11.995 8.43086 11.2481C8.43086 10.5012 8.72757 9.78488 9.25572 9.25674C9.78387 8.72859 10.5002 8.43188 11.2471 8.43188C11.994 8.43188 12.7104 8.72859 13.2385 9.25674C13.7666 9.78488 14.0634 10.5012 14.0634 11.2481C14.0634 11.995 13.7666 12.7114 13.2385 13.2395C12.7104 13.7677 11.994 14.0644 11.2471 14.0644Z"/>
<path d="M15.7548 7.76734C16.3129 7.76734 16.7654 7.31487 16.7654 6.75672C16.7654 6.19857 16.3129 5.74609 15.7548 5.74609C15.1966 5.74609 14.7441 6.19857 14.7441 6.75672C14.7441 7.31487 15.1966 7.76734 15.7548 7.76734Z"/>
<path d="M19.2478 5.72828C19.0308 5.16783 18.6991 4.65886 18.2741 4.23396C17.849 3.80906 17.3399 3.4776 16.7794 3.26078C16.1234 3.01455 15.4305 2.88141 14.73 2.86703C13.8272 2.82766 13.5413 2.81641 11.2519 2.81641C8.9625 2.81641 8.66906 2.81641 7.77375 2.86703C7.0738 2.88068 6.38133 3.01385 5.72625 3.26078C5.16557 3.47734 4.65634 3.80872 4.23125 4.23365C3.80616 4.65858 3.47459 5.16768 3.25781 5.72828C3.01154 6.38417 2.8787 7.07719 2.865 7.77766C2.82469 8.67953 2.8125 8.96547 2.8125 11.2558C2.8125 13.5452 2.8125 13.8367 2.865 14.7339C2.87906 15.4352 3.01125 16.127 3.25781 16.7842C3.4752 17.3446 3.80709 17.8535 4.23228 18.2784C4.65748 18.7033 5.16662 19.0348 5.72719 19.2517C6.38103 19.5078 7.07379 19.6505 7.77562 19.6736C8.67844 19.713 8.96438 19.7252 11.2537 19.7252C13.5431 19.7252 13.8366 19.7252 14.7319 19.6736C15.4323 19.6593 16.1252 19.5265 16.7813 19.2808C17.3416 19.0635 17.8506 18.7317 18.2756 18.3067C18.7006 17.8817 19.0324 17.3727 19.2497 16.8123C19.4962 16.1561 19.6284 15.4642 19.6425 14.763C19.6828 13.8611 19.695 13.5752 19.695 11.2848C19.695 8.99453 19.695 8.70391 19.6425 7.80672C19.6316 7.09635 19.4981 6.3932 19.2478 5.72828ZM18.1059 14.6645C18.0999 15.2048 18.0013 15.7401 17.8144 16.247C17.6736 16.6116 17.4581 16.9427 17.1816 17.2189C16.9052 17.4952 16.574 17.7105 16.2094 17.8511C15.708 18.0371 15.1785 18.1358 14.6438 18.1427C13.7531 18.1839 13.5019 18.1942 11.2181 18.1942C8.9325 18.1942 8.69906 18.1942 7.79156 18.1427C7.25712 18.1361 6.7278 18.0375 6.22688 17.8511C5.86096 17.7114 5.52844 17.4964 5.25083 17.2201C4.97323 16.9438 4.75672 16.6123 4.61531 16.247C4.43104 15.7455 4.33248 15.2166 4.32375 14.6823C4.28344 13.7917 4.27406 13.5405 4.27406 11.2567C4.27406 8.97203 4.27406 8.73859 4.32375 7.83016C4.32981 7.29018 4.42843 6.75524 4.61531 6.24859C4.90125 5.50891 5.48719 4.92672 6.22688 4.64359C6.72805 4.4581 7.25721 4.3595 7.79156 4.35203C8.68313 4.31172 8.93344 4.30047 11.2181 4.30047C13.5028 4.30047 13.7372 4.30047 14.6438 4.35203C15.1785 4.35846 15.7081 4.4571 16.2094 4.64359C16.574 4.78447 16.9051 5.00003 17.1815 5.27643C17.4579 5.55284 17.6735 5.88397 17.8144 6.24859C17.9986 6.75011 18.0972 7.27906 18.1059 7.81328C18.1462 8.70484 18.1566 8.95516 18.1566 11.2398C18.1566 13.5236 18.1566 13.7692 18.1162 14.6655H18.1059V14.6645Z"/>
</svg>
