<svg width="23" height="23" viewBox="0 0 23 23" fill="none" xmlns="http://www.w3.org/2000/svg">
<path d="M4.67039 6.74703C5.80326 6.74703 6.72164 5.82866 6.72164 4.69578C6.72164 3.56291 5.80326 2.64453 4.67039 2.64453C3.53752 2.64453 2.61914 3.56291 2.61914 4.69578C2.61914 5.82866 3.53752 6.74703 4.67039 6.74703Z" fill="black"/>
<path d="M8.65852 8.30078V19.6811H12.192V14.0533C12.192 12.5683 12.4713 11.1302 14.3126 11.1302C16.1285 11.1302 16.151 12.828 16.151 14.147V19.682H19.6863V13.4411C19.6863 10.3755 19.0263 8.01953 15.4432 8.01953C13.7229 8.01953 12.5698 8.96359 12.0982 9.85703H12.0504V8.30078H8.65852ZM2.90039 8.30078H6.43945V19.6811H2.90039V8.30078Z" fill="black"/>
</svg>
