<svg width="53" height="53" viewBox="0 0 53 53" fill="none" xmlns="http://www.w3.org/2000/svg">
<g clip-path="url(#clip0_181_12441)">
<path d="M33.125 28.4876C35.4505 28.9608 37.8667 28.6722 40.0154 27.6645C42.164 26.6567 43.9308 24.9835 45.0539 22.8929C46.177 20.8022 46.5965 18.4053 46.2505 16.0574C45.9044 13.7096 44.811 11.5357 43.1325 9.85802C41.4539 8.18032 39.2795 7.08809 36.9314 6.74321C34.5834 6.39832 32.1867 6.81914 30.0966 7.94329C28.0065 9.06743 26.3342 10.8351 25.3276 12.9843C24.321 15.1334 24.0336 17.5497 24.5081 19.8751"/>
<path d="M33.1245 28.4875L24.5076 19.8772L7.9164 38.8335C7.08765 39.6614 6.62172 40.7846 6.62109 41.956C6.62079 42.536 6.73473 43.1104 6.95641 43.6464C7.17809 44.1824 7.50316 44.6694 7.91308 45.0798C8.323 45.4902 8.80973 45.8157 9.34548 46.038C9.88123 46.2602 10.4555 46.3748 11.0355 46.3751C12.2069 46.3757 13.3306 45.911 14.1594 45.0831L33.1245 28.4875Z"/>
</g>
<defs>
<clipPath id="clip0_181_12441">
<rect width="53" height="53" fill="white"/>
</clipPath>
</defs>
</svg>
