<svg width="20" height="20" viewBox="0 0 20 20" fill="none" xmlns="http://www.w3.org/2000/svg">
<g clip-path="url(#clip0_181_12429)">
<path d="M12.4993 5.83339L7.0826 11.2501C6.75108 11.5816 6.56483 12.0312 6.56483 12.5001C6.56483 12.9689 6.75108 13.4185 7.0826 13.7501C7.41412 14.0816 7.86376 14.2678 8.3326 14.2678C8.80144 14.2678 9.25108 14.0816 9.5826 13.7501L14.9993 8.33339C15.6623 7.67034 16.0348 6.77107 16.0348 5.83339C16.0348 4.8957 15.6623 3.99643 14.9993 3.33339C14.3362 2.67034 13.4369 2.29785 12.4993 2.29785C11.5616 2.29785 10.6623 2.67034 9.99926 3.33339L4.5826 8.75005C3.58804 9.74461 3.0293 11.0935 3.0293 12.5001C3.0293 13.9066 3.58804 15.2555 4.5826 16.2501C5.57716 17.2446 6.92608 17.8034 8.3326 17.8034C9.73912 17.8034 11.088 17.2446 12.0826 16.2501L17.4993 10.8334"/>
</g>
<defs>
<clipPath id="clip0_181_12429">
<rect width="20" height="20" fill="white"/>
</clipPath>
</defs>
</svg>
