<svg width="20" height="20" viewBox="0 0 20 20" fill="none" xmlns="http://www.w3.org/2000/svg">
<g clip-path="url(#clip0_119_2707)">
<path d="M6.58634 14.6358C6.63066 14.8348 6.7348 15.0156 6.88479 15.1539C7.03479 15.2921 7.22347 15.3811 7.42551 15.4091C7.62756 15.437 7.83332 15.4025 8.01519 15.3101C8.19706 15.2178 8.34634 15.072 8.44301 14.8924L10.1847 12.3149L14.2738 16.4041C14.3564 16.4867 14.4544 16.5522 14.5623 16.5968C14.6702 16.6415 14.7858 16.6645 14.9026 16.6645C15.0194 16.6645 15.135 16.6415 15.2429 16.5968C15.3508 16.5522 15.4488 16.4867 15.5313 16.4041L16.4038 15.5316C16.4864 15.449 16.5519 15.351 16.5966 15.2431C16.6413 15.1352 16.6643 15.0196 16.6643 14.9028C16.6643 14.7861 16.6413 14.6704 16.5966 14.5626C16.5519 14.4547 16.4864 14.3567 16.4038 14.2741L12.3147 10.1849L14.9088 8.44325C15.0884 8.34652 15.2342 8.19717 15.3265 8.01524C15.4188 7.83332 15.4532 7.62752 15.4252 7.42545C15.3972 7.22339 15.308 7.03473 15.1697 6.88479C15.0314 6.73484 14.8505 6.63079 14.6513 6.58659L3.33301 3.33325L6.58634 14.6358Z"/>
</g>
<defs>
<clipPath id="clip0_119_2707">
<rect width="20" height="20" fill="white"/>
</clipPath>
</defs>
</svg>
