<svg width="21" height="20" viewBox="0 0 21 20" fill="none" xmlns="http://www.w3.org/2000/svg">
<g clip-path="url(#clip0_234_3974)">
<path d="M12.7 4.16675V5.83341" stroke="#CA161A" stroke-width="1.5" stroke-linecap="round" stroke-linejoin="round"/>
<path d="M12.7 9.16675V10.8334" stroke="#CA161A" stroke-width="1.5" stroke-linecap="round" stroke-linejoin="round"/>
<path d="M12.7 14.1667V15.8334" stroke="#CA161A" stroke-width="1.5" stroke-linecap="round" stroke-linejoin="round"/>
<path d="M4.36662 4.16675H16.0333C16.4753 4.16675 16.8992 4.34234 17.2118 4.6549C17.5244 4.96746 17.7 5.39139 17.7 5.83341V8.33341C17.2579 8.33341 16.834 8.50901 16.5214 8.82157C16.2089 9.13413 16.0333 9.55805 16.0333 10.0001C16.0333 10.4421 16.2089 10.866 16.5214 11.1786C16.834 11.4912 17.2579 11.6667 17.7 11.6667V14.1667C17.7 14.6088 17.5244 15.0327 17.2118 15.3453C16.8992 15.6578 16.4753 15.8334 16.0333 15.8334H4.36662C3.92459 15.8334 3.50067 15.6578 3.18811 15.3453C2.87555 15.0327 2.69995 14.6088 2.69995 14.1667V11.6667C3.14198 11.6667 3.5659 11.4912 3.87846 11.1786C4.19102 10.866 4.36662 10.4421 4.36662 10.0001C4.36662 9.55805 4.19102 9.13413 3.87846 8.82157C3.5659 8.50901 3.14198 8.33341 2.69995 8.33341V5.83341C2.69995 5.39139 2.87555 4.96746 3.18811 4.6549C3.50067 4.34234 3.92459 4.16675 4.36662 4.16675Z" stroke="#CA161A" stroke-width="1.5" stroke-linecap="round" stroke-linejoin="round"/>
</g>
<defs>
<clipPath id="clip0_234_3974">
<rect width="20" height="20" fill="white" transform="translate(0.199951)"/>
</clipPath>
</defs>
</svg>
