<svg width="24" height="24" viewBox="0 0 24 24" fill="none" xmlns="http://www.w3.org/2000/svg">
<path fill-rule="evenodd" clip-rule="evenodd" d="M18.2041 5.76205C16.5581 4.11505 14.3691 3.20705 12.0371 3.20605C7.23014 3.20605 3.31914 7.11505 3.31814 11.9201C3.31614 13.4491 3.71714 14.9521 4.48114 16.2771L3.24414 20.7931L7.86614 19.5811C9.14514 20.2771 10.5771 20.6421 12.0331 20.6421H12.0371C16.8421 20.6421 20.7531 16.7321 20.7551 11.9271C20.7561 9.59905 19.8501 7.41005 18.2041 5.76205Z"/>
<path d="M13.0947 13.5599L13.5007 13.1569C13.8737 12.7869 14.4637 12.7399 14.8937 13.0419C15.3097 13.3339 15.6857 13.5959 16.0357 13.8399C16.5917 14.2259 16.6587 15.0179 16.1797 15.4959L15.8207 15.8549"/>
<path d="M8.14551 8.1789L8.50451 7.8199C8.98251 7.3419 9.77451 7.4089 10.1605 7.9639C10.4035 8.3139 10.6655 8.6899 10.9585 9.1059C11.2605 9.5359 11.2145 10.1259 10.8435 10.4989L10.4405 10.9049"/>
<path d="M15.8207 15.8548C14.3397 17.3288 11.8507 16.0768 9.88574 14.1108"/>
<path d="M9.88807 14.114C7.92307 12.148 6.67107 9.65996 8.14507 8.17896"/>
<path d="M10.4404 10.9048C10.7594 11.4078 11.1684 11.9058 11.6304 12.3678L11.6324 12.3698C12.0944 12.8318 12.5924 13.2408 13.0954 13.5598"/>
</svg>
