<svg width="24" height="24" viewBox="0 0 24 24" fill="none" xmlns="http://www.w3.org/2000/svg">
<g clip-path="url(#clip0_219_13289)">
<path d="M17.657 10.9999C17.9766 10.0949 18.0745 9.12654 17.9424 8.17596C17.8103 7.22537 17.4522 6.32033 16.8979 5.53682C16.3437 4.7533 15.6096 4.11416 14.7573 3.67304C13.9049 3.23193 12.9592 3.00171 11.9995 3.00171C11.0398 3.00171 10.0941 3.23193 9.24174 3.67304C8.3894 4.11416 7.65531 4.7533 7.10109 5.53682C6.54687 6.32033 6.18869 7.22537 6.05661 8.17596C5.92452 9.12654 6.0224 10.0949 6.34201 10.9999" stroke="#EF7D10" stroke-width="1.5" stroke-linecap="round" stroke-linejoin="round"/>
<path d="M6.3418 11L11.9998 22L17.6568 11H6.3418Z" stroke="#EF7D10" stroke-width="1.5" stroke-linecap="round" stroke-linejoin="round"/>
</g>
<defs>
<clipPath id="clip0_219_13289">
<rect width="24" height="24" fill="white"/>
</clipPath>
</defs>
</svg>
