<svg width="24" height="24" viewBox="0 0 24 24" fill="none" xmlns="http://www.w3.org/2000/svg">
<g clip-path="url(#clip0_219_13639)">
<path d="M13.1918 9H19.8078C20.0859 8.99995 20.361 9.05789 20.6154 9.17014C20.8699 9.28238 21.0981 9.44646 21.2856 9.65189C21.473 9.85733 21.6156 10.0996 21.7041 10.3632C21.7927 10.6269 21.8252 10.9061 21.7998 11.183L21.2328 17.365C21.1418 18.3585 20.6828 19.2821 19.9459 19.9546C19.209 20.6271 18.2474 20.9999 17.2498 21H15.7498C14.7522 20.9999 13.7906 20.6271 13.0537 19.9546C12.3168 19.2821 11.8578 18.3585 11.7668 17.365L11.1998 11.183C11.1743 10.9061 11.2069 10.6269 11.2955 10.3632C11.384 10.0996 11.5266 9.85733 11.714 9.65189C11.9015 9.44646 12.1297 9.28238 12.3842 9.17014C12.6386 9.05789 12.9137 8.99995 13.1918 9Z" stroke="#2C2A7F" stroke-width="1.5" stroke-linecap="round" stroke-linejoin="round"/>
<path d="M15 13H15.01" stroke="#2C2A7F" stroke-width="1.5" stroke-linecap="round" stroke-linejoin="round"/>
<path d="M18 13H18.01" stroke="#2C2A7F" stroke-width="1.5" stroke-linecap="round" stroke-linejoin="round"/>
<path d="M15 16.5C16 17.167 17 17.167 18 16.5" stroke="#2C2A7F" stroke-width="1.5" stroke-linecap="round" stroke-linejoin="round"/>
<path d="M8.6318 15.982C8.50482 15.994 8.37734 16 8.2498 16H6.7498C5.75217 15.9999 4.79058 15.6271 4.0537 14.9546C3.31682 14.2821 2.85783 13.3585 2.7668 12.365L2.1998 6.183C2.17435 5.90606 2.20694 5.62686 2.29548 5.36323C2.38403 5.09959 2.52658 4.85733 2.71404 4.65189C2.9015 4.44646 3.12974 4.28238 3.38418 4.17014C3.63863 4.05789 3.91369 3.99995 4.1918 4H10.8078C11.3382 4 11.8469 4.21071 12.222 4.58579C12.5971 4.96086 12.8078 5.46957 12.8078 6" stroke="#2C2A7F" stroke-width="1.5" stroke-linecap="round" stroke-linejoin="round"/>
<path d="M6 8H6.01" stroke="#2C2A7F" stroke-width="1.5" stroke-linecap="round" stroke-linejoin="round"/>
<path d="M9 8H9.01" stroke="#2C2A7F" stroke-width="1.5" stroke-linecap="round" stroke-linejoin="round"/>
<path d="M6 11.9999C6.764 11.4899 7.528 11.3699 8.291 11.6399" stroke="#2C2A7F" stroke-width="1.5" stroke-linecap="round" stroke-linejoin="round"/>
</g>
<defs>
<clipPath id="clip0_219_13639">
<rect width="24" height="24" fill="white"/>
</clipPath>
</defs>
</svg>
