<svg width="24" height="24" viewBox="0 0 24 24" fill="none" xmlns="http://www.w3.org/2000/svg">
<g clip-path="url(#clip0_219_13117)">
<path d="M15 12.9001C16.0531 13.1144 17.1472 12.9837 18.1202 12.5273C19.0932 12.071 19.8932 11.3134 20.4018 10.3666C20.9103 9.41991 21.1003 8.33453 20.9436 7.27134C20.7869 6.20816 20.2918 5.22377 19.5317 4.46405C18.7716 3.70434 17.787 3.20975 16.7237 3.05357C15.6604 2.8974 14.5751 3.08796 13.6287 3.59701C12.6822 4.10605 11.925 4.9065 11.4691 5.87971C11.0133 6.85292 10.8832 7.9471 11.098 9.00007" stroke="#15785D" stroke-width="1.5" stroke-linecap="round" stroke-linejoin="round"/>
<path d="M15.0001 12.9L11.0981 9.00098L3.58509 17.585C3.20981 17.9599 2.99882 18.4685 2.99854 18.9989C2.9984 19.2616 3.04999 19.5217 3.15037 19.7644C3.25076 20.0071 3.39796 20.2277 3.58359 20.4135C3.76921 20.5993 3.98962 20.7467 4.23222 20.8474C4.47482 20.948 4.73488 20.9999 4.99753 21C5.52797 21.0003 6.03681 20.7899 6.41209 20.415L15.0001 12.9Z" stroke="#15785D" stroke-width="1.5" stroke-linecap="round" stroke-linejoin="round"/>
</g>
<defs>
<clipPath id="clip0_219_13117">
<rect width="24" height="24" fill="white"/>
</clipPath>
</defs>
</svg>
