<svg width="24" height="24" viewBox="0 0 24 24" fill="none" xmlns="http://www.w3.org/2000/svg">
<g clip-path="url(#clip0_219_13618)">
<path d="M8 3H6L3 12" stroke="#2C2A7F" stroke-width="1.5" stroke-linecap="round" stroke-linejoin="round"/>
<path d="M16 3H18L21 12" stroke="#2C2A7F" stroke-width="1.5" stroke-linecap="round" stroke-linejoin="round"/>
<path d="M3 12V19C3 19.2652 3.10536 19.5196 3.29289 19.7071C3.48043 19.8946 3.73478 20 4 20H8.586C8.8512 19.9999 9.10551 19.8946 9.293 19.707L11.293 17.707C11.4805 17.5195 11.7348 17.4142 12 17.4142C12.2652 17.4142 12.5195 17.5195 12.707 17.707L14.707 19.707C14.8945 19.8946 15.1488 19.9999 15.414 20H20C20.2652 20 20.5196 19.8946 20.7071 19.7071C20.8946 19.5196 21 19.2652 21 19V12H3Z" stroke="#2C2A7F" stroke-width="1.5" stroke-linecap="round" stroke-linejoin="round"/>
<path d="M7 16H8" stroke="#2C2A7F" stroke-width="1.5" stroke-linecap="round" stroke-linejoin="round"/>
<path d="M16 16H17" stroke="#2C2A7F" stroke-width="1.5" stroke-linecap="round" stroke-linejoin="round"/>
</g>
<defs>
<clipPath id="clip0_219_13618">
<rect width="24" height="24" fill="white"/>
</clipPath>
</defs>
</svg>
