<svg width="24" height="24" viewBox="0 0 24 24" fill="none" xmlns="http://www.w3.org/2000/svg">
<g clip-path="url(#clip0_219_13093)">
<path d="M12 13L10 11" stroke="#15785D" stroke-width="1.5" stroke-linecap="round" stroke-linejoin="round"/>
<path d="M12 12L14 10" stroke="#15785D" stroke-width="1.5" stroke-linecap="round" stroke-linejoin="round"/>
<path d="M12 21V8" stroke="#15785D" stroke-width="1.5" stroke-linecap="round" stroke-linejoin="round"/>
<path d="M9.82419 15.9999C9.38667 15.9743 8.96006 15.8532 8.5744 15.645C8.18873 15.4367 7.85337 15.1466 7.5919 14.7948C7.33043 14.4431 7.1492 14.0383 7.06097 13.609C6.97274 13.1797 6.97964 12.7363 7.08119 12.3099C6.71867 12.008 6.43245 11.6249 6.24579 11.1916C6.05912 10.7583 5.97728 10.2872 6.00689 9.81631C6.03651 9.34547 6.17676 8.88825 6.41624 8.48177C6.65572 8.0753 6.98769 7.73104 7.38519 7.47695C7.03657 6.8576 6.91914 6.1346 7.05385 5.43676C7.18856 4.73891 7.56665 4.11156 8.12076 3.66648C8.67486 3.22139 9.36899 2.98749 10.0795 3.00644C10.7899 3.02539 11.4706 3.29596 12.0002 3.76995C12.5299 3.29671 13.2104 3.02678 13.9204 3.0082C14.6305 2.98962 15.3241 3.22359 15.8779 3.66848C16.4316 4.11336 16.8095 4.7403 16.9444 5.4377C17.0792 6.1351 16.9622 6.85772 16.6142 7.47695C17.0118 7.73096 17.3438 8.07515 17.5834 8.48158C17.823 8.88801 17.9633 9.34521 17.993 9.81606C18.0227 10.2869 17.941 10.7581 17.7544 11.1914C17.5678 11.6248 17.2817 12.008 16.9192 12.3099C17.0242 12.7507 17.0279 13.2096 16.9302 13.652C16.8325 14.0945 16.6358 14.5091 16.3549 14.8646C16.074 15.2202 15.7162 15.5075 15.3084 15.705C14.9006 15.9025 14.4533 16.005 14.0002 16.0049H10.0002L9.82419 15.9999Z" stroke="#15785D" stroke-width="1.5" stroke-linecap="round" stroke-linejoin="round"/>
</g>
<defs>
<clipPath id="clip0_219_13093">
<rect width="24" height="24" fill="white"/>
</clipPath>
</defs>
</svg>
